HIERARCHY
ROOT RootJoint
{
    OFFSET   0.000000   0.000000   0.000000
    CHANNELS 6 Xposition Yposition Zposition Xrotation Yrotation Zrotation
    JOINT pelvis_lowerback
    {
        OFFSET   0.000000   0.093605   0.000000
        CHANNELS 3 Xrotation Yrotation Zrotation
        JOINT lowerback_torso
        {
            OFFSET   0.000000   0.100000   0.000000
            CHANNELS 3 Xrotation Yrotation Zrotation
            JOINT torso_head
            {
                OFFSET   0.000000   0.282350   0.000000
                CHANNELS 3 Xrotation Yrotation Zrotation
                End Site
                {
                    OFFSET   0.000000   0.192650   0.000000
                }
            }
            JOINT rTorso_Clavicle
            {
                OFFSET  -0.001000   0.157500   0.000000
                CHANNELS 3 Xrotation Yrotation Zrotation
                JOINT rShoulder
                {
                    OFFSET  -0.117647   0.000000   0.000000
                    CHANNELS 3 Xrotation Yrotation Zrotation
                    JOINT rElbow
                    {
                        OFFSET  -0.245000   0.000000   0.000000
                        CHANNELS 3 Xrotation Yrotation Zrotation
                        JOINT rWrist
                        {
                            OFFSET  -0.240000   0.000000   0.000000
                            CHANNELS 3 Xrotation Yrotation Zrotation
                            End Site
                            {
                                OFFSET  -0.116353  -0.002500   0.000000
                            }
                        }
                    }
                }
            }
            JOINT lTorso_Clavicle
            {
                OFFSET   0.001000   0.157500   0.000000
                CHANNELS 3 Xrotation Yrotation Zrotation
                JOINT lShoulder
                {
                    OFFSET   0.117647   0.000000   0.000000
                    CHANNELS 3 Xrotation Yrotation Zrotation
                    JOINT lElbow
                    {
                        OFFSET   0.245000   0.000000   0.000000
                        CHANNELS 3 Xrotation Yrotation Zrotation
                        JOINT lWrist
                        {
                            OFFSET   0.240000   0.000000   0.000000
                            CHANNELS 3 Xrotation Yrotation Zrotation
                            End Site
                            {
                                OFFSET   0.116353  -0.002500   0.000000
                            }
                        }
                    }
                }
            }
        }
    }
    JOINT rHip
    {
        OFFSET  -0.100000  -0.051395   0.000000
        CHANNELS 3 Xrotation Yrotation Zrotation
        JOINT rKnee
        {
            OFFSET   0.000000  -0.410000   0.000000
            CHANNELS 3 Xrotation Yrotation Zrotation
            JOINT rAnkle
            {
                OFFSET   0.000000  -0.390000   0.000000
                CHANNELS 3 Xrotation Yrotation Zrotation
                JOINT rToeJoint
                {
                    OFFSET   0.000000  -0.050000   0.130000
                    CHANNELS 3 Xrotation Yrotation Zrotation
                    End Site
                    {
                        OFFSET  -0.010000   0.002000   0.060000
                    }
                }
            }
        }
    }
    JOINT lHip
    {
        OFFSET   0.100000  -0.051395   0.000000
        CHANNELS 3 Xrotation Yrotation Zrotation
        JOINT lKnee
        {
            OFFSET   0.000000  -0.410000   0.000000
            CHANNELS 3 Xrotation Yrotation Zrotation
            JOINT lAnkle
            {
                OFFSET   0.000000  -0.390000   0.000000
                CHANNELS 3 Xrotation Yrotation Zrotation
                JOINT lToeJoint
                {
                    OFFSET   0.000000  -0.050000   0.130000
                    CHANNELS 3 Xrotation Yrotation Zrotation
                    End Site
                    {
                        OFFSET   0.010000   0.002000   0.060000
                    }
                }
            }
        }
    }
}
MOTION
Frames: 12
Frame Time:   0.008333
 -2.347202   0.869224   3.667949   0.640976   9.968247   3.023346   6.892520   1.323354  -1.862660  -0.022174   1.488072   1.253413  -2.174853   0.549691   0.043175   3.511919  -4.463323  13.237492   8.153934   5.649643  43.034203  -0.000354  58.304802   0.000515   2.377789   5.763206  -6.380715   5.073158   7.458331 -12.037252   8.625788  -0.986960 -45.559031   0.000531 -76.733894   0.001087   1.004072  -6.011188  10.981552  -4.303176  -6.830505 -16.982718  36.992033   0.010159   0.003536 -20.574211  -5.716262   5.282716 -11.620155   0.032980   0.001443 -25.180088   7.575670  10.144601  25.053810   0.002266   0.001126   1.810737  16.754009  -1.707582   0.880782  -0.000032  -0.000054
 -2.354202   0.867761   3.663414   0.565935   9.413682   3.014962   7.096813   1.327443  -1.632220  -0.129215   1.548333   1.246799  -2.276942   0.558869  -0.048262   3.353029  -4.188276  13.278408   7.685305   5.902246  42.651588   0.001602  58.005764  -0.001560   2.365085   5.841839  -6.341793   5.118732   7.546921 -12.146973   8.702589  -0.960359 -45.764562   0.001424 -76.820222   0.001933   1.108346  -6.075292  11.005756  -4.600593  -6.772366 -16.604903  36.976768   0.008213   0.002860 -21.324636  -5.512011   5.182244 -13.444441   0.033570   0.006438 -25.278064   7.535564  10.683929  24.736264   0.003037   0.001837   2.293901  16.764447  -1.964958   0.757351   0.000143   0.000292
 -2.361292   0.866377   3.658835   0.478207   8.910125   3.000170   7.311733   1.308069  -1.394431  -0.210082   1.591704   1.246810  -2.369952   0.562321  -0.128678   3.178493  -3.913167  13.306099   7.229250   6.146859  42.278041   0.003065  57.715620  -0.003097   2.343064   5.833411  -6.349776   5.173175   7.615652 -12.271120   8.788010  -0.945115 -45.972826   0.002120 -76.893661   0.002579   1.201840  -6.095508  10.934195  -4.925741  -6.728485 -16.207051  37.045168   0.006194   0.002146 -22.023968  -5.321927   5.092167 -15.103152   0.033197   0.010150 -25.328735   7.475391  11.215296  24.348262   0.003913   0.002533   2.706500  16.769900  -2.185894   0.640629   0.000278   0.000532
 -2.368219   0.865458   3.654445   0.361974   8.515836   2.875041   7.516200   1.266361  -1.033998  -0.270623   1.613098   1.288128  -2.452420   0.563965  -0.198153   3.018562  -3.667249  13.320261   6.807394   6.362890  41.907907   0.004041  57.432368  -0.004173   2.316311   5.768219  -6.400719   5.237076   7.672068 -12.451653   8.881219  -0.941476 -46.201965   0.002502 -76.955337   0.002884   1.286500  -6.083432  10.774777  -5.260725  -6.676244 -15.718298  37.349588   0.003476   0.001337 -23.102688  -5.119158   5.118500 -13.522017   0.018983   0.004716 -25.293338   7.384119  11.814955  23.828039   0.004999   0.003009   3.008053  16.771966  -2.347158   0.537474   0.000354   0.000608
 -2.374990   0.864703   3.650256   0.244860   8.218530   2.732175   7.688260   1.211998  -0.671493  -0.326001   1.617036   1.349757  -2.528436   0.564940  -0.254420   2.882051  -3.453257  13.322984   6.423473   6.556954  41.563037   0.004583  57.168043  -0.004773   2.288671   5.693857  -6.458919   5.304452   7.725269 -12.622937   8.975304  -0.942081 -46.425691   0.002688 -77.016858   0.003000   1.368050  -6.078723  10.573402  -5.572501  -6.637942 -15.207160  37.660964   0.001395   0.000917 -23.995011  -4.894588   5.141673 -12.068581   0.008283   0.002437 -25.220262   7.299545  12.399347  23.232570   0.006008   0.003090   3.235982  16.776601  -2.476951   0.437720   0.000390   0.000588
 -2.381576   0.863992   3.646234   0.128159   7.980367   2.594035   7.837720   1.160412  -0.324357  -0.381195   1.616263   1.414513  -2.600522   0.566104  -0.304559   2.762093  -3.262581  13.317082   6.071359   6.733538  41.239840   0.004828  56.921222  -0.005027   2.261427   5.618980  -6.517904   5.370477   7.778162 -12.776862   9.065462  -0.941937 -46.634285   0.002686 -77.076822   0.002941   1.447984  -6.084834  10.370311  -5.868791  -6.630113 -14.703472  37.971528  -0.000208   0.000678 -24.791627  -4.699992   5.170313 -10.736963   0.000447   0.001078 -25.131164   7.228365  12.956728  22.613118   0.006789   0.002906   3.419635  16.783819  -2.589130   0.342286   0.000400   0.000525
 -2.387962   0.863318   3.642334   0.007002   7.824858   2.457928   7.975684   1.101585   0.015691  -0.435731   1.605709   1.482124  -2.669309   0.566955  -0.350367   2.654475  -3.091703  13.304691   5.746633   6.893833  40.934262   0.004834  56.689253  -0.004998   2.234169   5.539855  -6.584386   5.430174   7.825951 -12.918206   9.148155  -0.943163 -46.828192   0.002531 -77.134064   0.002735   1.526020  -6.097416  10.174967  -6.128110  -6.638958 -14.201946  38.265106  -0.001305   0.000664 -25.510334  -4.514775   5.195439  -9.550293  -0.005003   0.000988 -25.057880   7.229802  13.404531  22.063173   0.006586   0.002217   3.615249  16.808038  -2.735147   0.241081   0.000294   0.000374
 -2.394207   0.863012   3.638355  -0.114567   7.697713   2.336840   8.146160   1.049681   0.309216  -0.439425   1.561275   1.569275  -2.782240   0.533262  -0.360809   2.515762  -2.903109  13.316505   5.249660   7.051141  40.668467   0.007177  56.032057  -0.007664   2.211931   5.635908  -6.579748   5.489307   7.817430 -13.020307   9.302355  -1.060970 -47.022675  -0.000499 -76.960678  -0.000435   1.614231  -6.203406  10.038571  -6.432309  -6.622465 -13.699596  38.617583  -0.002382   0.000842 -25.969737  -4.461349   5.208023  -8.744140  -0.007367   0.000281 -24.894418   7.101142  13.851949  21.393501   0.007162   0.002275   3.213163  16.625632  -2.774602   0.130662   0.000212   0.000578
 -2.400247   0.862875   3.634344  -0.223516   7.640542   2.227815   8.333180   0.980216   0.589084  -0.420014   1.500470   1.652690  -2.888329   0.499163  -0.367580   2.380439  -2.724063  13.320602   4.782452   7.192157  40.411050   0.008367  55.397844  -0.008987   2.173281   5.595179  -6.611965   5.551220   7.793133 -13.118537   9.455806  -1.179038 -47.207862  -0.002965 -76.785990  -0.003021   1.687224  -6.228178   9.817006  -6.733636  -6.621956 -13.214695  38.942766  -0.003036   0.001107 -26.319970  -4.422284   5.201719  -8.091479  -0.008450   0.000102 -24.753509   7.022598  14.237893  20.717159   0.007295   0.001814   2.821311  16.471741  -2.838140  -0.025316   0.000029   0.000705
 -2.406104   0.862845   3.630311  -0.324951   7.624338   2.128003   8.537354   0.911280   0.851887  -0.380354   1.437634   1.730490  -2.984586   0.467069  -0.372543   2.255377  -2.559603  13.316669   4.347853   7.321370  40.166974   0.008635  54.803518  -0.009226   2.131942   5.520030  -6.656465   5.610072   7.766534 -13.209417   9.600570  -1.291810 -47.381450  -0.004636 -76.621994  -0.004776   1.753956  -6.231696   9.572833  -7.027478  -6.644412 -12.746401  39.232986  -0.003389   0.001322 -26.597926  -4.405259   5.189169  -7.519636  -0.008907   0.000002 -24.644582   6.983191  14.549985  20.064800   0.006932   0.001163   2.456191  16.339032  -2.915820  -0.172566  -0.000203   0.000706
 -2.411806   0.862881   3.626282  -0.419314   7.618218   2.034738   8.752157   0.853676   1.093150  -0.323070   1.382495   1.802058  -3.070968   0.437447  -0.376695   2.140329  -2.407246  13.309225   3.943948   7.441623  39.938436   0.008338  54.248418  -0.008811   2.091341   5.438852  -6.699857   5.667386   7.743750 -13.290607   9.737278  -1.395546 -47.541701  -0.005686 -76.468536  -0.005882   1.816953  -6.228945   9.334169  -7.315253  -6.674711 -12.292182  39.489402  -0.003534   0.001452 -26.827581  -4.395920   5.171713  -6.992490  -0.009034  -0.000058 -24.552025   6.953641  14.808338  19.451989   0.006331   0.000660   2.115183  16.215256  -2.989353  -0.309627  -0.000399   0.000688
 -2.417369   0.862956   3.622272  -0.506930   7.611836   1.946356   8.973074   0.807585   1.312733  -0.251853   1.336764   1.867084  -3.148540   0.410097  -0.380781   2.034347  -2.265245  13.300820   3.568411   7.554411  39.725778   0.007730  53.730377  -0.008047   2.052229   5.358774  -6.737933   5.724168   7.726412 -13.362204   9.866962  -1.489237 -47.688745  -0.006291 -76.324503  -0.006522   1.876518  -6.220913   9.109384  -7.597316  -6.708769 -11.850646  39.714703  -0.003535   0.001504 -27.022546  -4.388273   5.151858  -6.492419  -0.008986  -0.000095 -24.470114   6.929574  15.025136  18.880012   0.005625   0.000323   1.796883  16.099692  -3.058743  -0.436285  -0.000550   0.000666
